<?xml version="1.0" standalone="no"?>
<!DOCTYPE svg PUBLIC "-//W3C//DTD SVG 20010904//EN"
 "http://www.w3.org/TR/2001/REC-SVG-20010904/DTD/svg10.dtd">
<svg version="1.0" xmlns="http://www.w3.org/2000/svg"
 width="640.000000pt" height="480.000000pt" viewBox="0 0 640.000000 480.000000"
 preserveAspectRatio="xMidYMid meet">

<g transform="translate(0.000000,480.000000) scale(0.100000,-0.100000)"
fill="#000000" stroke="none">
<path d="M1560 4605 c-11 -13 -15 -44 -15 -109 0 -77 4 -98 25 -140 24 -48
134 -176 142 -166 3 3 26 42 51 87 37 65 46 88 41 112 -4 18 1 50 12 81 l18
51 -29 24 c-77 63 -215 96 -245 60z"/>
<path d="M1860 4379 c-19 -7 -39 -36 -77 -112 -28 -56 -202 -364 -386 -685
l-336 -583 42 3 c37 3 43 7 70 53 16 28 136 235 267 460 130 226 267 462 304
525 62 107 100 153 185 223 33 27 34 29 22 67 -6 22 -20 44 -31 50 -22 12 -26
12 -60 -1z"/>
<path d="M1948 4238 c-19 -24 -49 -64 -68 -90 l-33 -47 97 -106 c54 -58 102
-102 108 -99 39 24 228 25 274 1 80 -41 130 -111 155 -213 6 -27 15 -53 20
-58 4 -4 62 -5 128 -1 l121 7 0 37 c0 61 -38 190 -82 281 -64 131 -157 218
-261 242 -64 15 -165 10 -236 -11 l-64 -20 -62 60 -62 59 -35 -42z"/>
<path d="M4040 3728 c-35 -5 -98 -21 -140 -35 -329 -113 -540 -340 -630 -678
l-15 -60 -135 -5 c-118 -4 -146 -2 -220 17 -47 12 -98 22 -114 23 l-28 0 53
-62 c30 -35 60 -71 68 -80 13 -17 -21 -18 -677 -18 l-691 0 -62 75 -62 75
-258 0 c-143 0 -259 -3 -258 -7 0 -5 31 -33 69 -63 60 -49 76 -68 131 -170
100 -185 82 -170 207 -170 l108 0 64 65 64 65 688 0 c378 0 688 -3 688 -6 0
-3 -25 -34 -55 -68 -30 -35 -52 -66 -48 -69 11 -11 65 -8 116 8 31 9 100 15
205 16 l157 1 31 -89 c114 -321 384 -556 709 -618 153 -30 350 -15 500 37 307
106 542 374 611 696 19 92 22 270 5 362 -38 201 -137 380 -288 520 -213 196
-494 281 -793 238z m280 -108 c337 -53 615 -318 687 -654 21 -102 13 -307 -17
-401 -94 -298 -338 -520 -640 -581 -66 -13 -111 -15 -200 -11 -122 7 -177 19
-278 59 -221 90 -406 291 -477 520 l-18 57 42 55 c40 54 43 56 89 56 l48 0 17
-70 c49 -206 180 -356 379 -439 120 -49 258 -58 393 -26 217 53 403 236 460
455 23 87 24 236 2 320 -59 225 -232 395 -462 455 -75 19 -230 19 -304 0 -242
-63 -430 -255 -472 -485 -6 -36 -13 -70 -15 -77 -4 -15 -65 -27 -91 -19 -10 4
-35 29 -57 57 l-38 50 17 66 c76 305 338 549 650 608 86 16 199 18 285 5z m19
-260 c40 -11 92 -30 115 -42 84 -42 174 -126 232 -215 88 -136 111 -331 56
-489 -33 -95 -67 -146 -152 -232 -174 -175 -453 -212 -681 -91 -80 43 -185
147 -225 224 -37 70 -79 193 -70 203 4 3 51 8 105 10 l99 4 7 -33 c26 -122
153 -241 284 -269 168 -35 348 54 423 209 29 59 32 75 32 156 0 128 -26 189
-113 272 -83 79 -148 106 -259 105 -176 0 -324 -111 -365 -274 l-13 -53 -102
-3 c-119 -3 -116 -6 -83 108 29 103 68 169 148 252 80 82 170 135 273 162 81
22 202 20 289 -4z m-22 -330 c89 -51 137 -132 136 -230 0 -107 -50 -188 -147
-237 -126 -64 -295 -7 -352 119 -22 50 -13 58 68 58 45 0 65 -5 94 -25 85 -58
184 -11 184 86 0 97 -104 141 -186 79 -35 -26 -47 -29 -111 -30 -84 0 -86 2
-44 76 52 91 125 133 231 134 65 0 82 -4 127 -30z"/>
<path d="M972 2838 c-36 -36 -22 -65 359 -753 204 -369 401 -728 438 -800 59
-114 71 -131 99 -139 41 -11 78 11 87 54 6 28 0 36 -77 113 l-84 82 -339 615
c-186 338 -363 660 -393 715 -64 119 -73 130 -90 113z"/>
<path d="M930 2633 c-30 -25 -56 -49 -58 -54 -2 -5 35 -9 82 -9 47 0 86 2 86
5 0 7 -50 105 -53 104 -1 0 -27 -21 -57 -46z"/>
<path d="M2428 2543 l-25 -136 62 -61 c180 -178 151 -351 -92 -546 -45 -36
-179 -124 -298 -195 -270 -162 -272 -164 -255 -196 18 -35 62 -80 88 -90 20
-8 39 0 112 45 98 61 237 132 445 227 107 48 153 75 194 114 145 136 244 351
225 490 -14 105 -84 211 -185 281 -45 31 -44 25 -22 167 l6 37 -115 0 -114 0
-26 -137z"/>
<path d="M3605 1700 c-4 -7 -3 -16 3 -22 14 -14 45 -2 40 15 -6 16 -34 21 -43
7z"/>
<path d="M2964 1616 c-29 -29 -34 -41 -34 -81 0 -40 5 -52 34 -81 30 -30 40
-34 86 -34 44 0 56 4 81 29 19 20 29 40 29 60 0 31 0 31 -55 31 -48 0 -55 -2
-55 -20 0 -16 7 -20 30 -20 17 0 30 -4 30 -8 0 -18 -26 -32 -60 -32 -71 0
-107 81 -57 128 27 26 82 29 107 7 15 -14 19 -13 34 4 17 19 17 20 -13 35 -16
9 -51 16 -77 16 -39 0 -51 -5 -80 -34z"/>
<path d="M3276 1642 c-3 -6 -21 -50 -40 -98 -19 -49 -37 -97 -41 -106 -6 -14
-2 -18 18 -18 18 0 27 7 31 25 6 22 11 25 55 25 44 0 49 -3 55 -25 5 -18 13
-25 31 -25 l25 0 -21 53 c-12 28 -31 79 -43 112 -17 44 -29 61 -44 63 -11 2
-23 -1 -26 -6z m42 -102 c11 -29 10 -30 -20 -30 -25 0 -29 3 -23 18 4 9 10 25
12 34 7 23 19 15 31 -22z"/>
<path d="M3440 1630 c0 -16 7 -20 36 -20 25 0 35 -4 31 -12 -3 -7 -21 -50 -41
-95 l-35 -83 69 0 c63 0 70 2 70 20 0 16 -7 20 -35 20 -19 0 -35 4 -35 9 0 5
13 38 29 73 51 114 52 108 -23 108 -59 0 -66 -2 -66 -20z"/>
<path d="M3600 1535 c0 -108 1 -115 20 -115 19 0 20 7 20 115 0 108 -1 115
-20 115 -19 0 -20 -7 -20 -115z"/>
<path d="M3804 1616 c-29 -29 -34 -41 -34 -81 0 -40 5 -52 34 -81 28 -28 42
-34 75 -34 81 0 121 41 121 121 0 33 -7 48 -34 75 -29 29 -41 34 -81 34 -40 0
-52 -5 -81 -34z m133 -28 c49 -45 14 -128 -54 -128 -44 0 -73 30 -73 75 0 68
77 101 127 53z"/>
<path d="M4050 1535 c0 -108 1 -115 20 -115 17 0 20 7 20 52 l0 52 36 -52 c27
-38 43 -52 61 -52 27 0 27 0 -24 71 -18 26 -33 50 -33 55 0 5 16 29 36 54 35
44 35 45 13 48 -16 3 -32 -7 -55 -35 l-33 -38 -1 38 c0 30 -4 37 -20 37 -19 0
-20 -7 -20 -115z"/>
<path d="M4291 1636 c-34 -19 -50 -54 -51 -107 0 -53 24 -86 83 -114 20 -9 34
-22 31 -27 -3 -5 -12 -7 -20 -4 -7 3 -16 1 -19 -4 -3 -5 6 -12 20 -16 36 -9
65 17 45 40 -10 14 -9 16 6 16 11 0 30 9 44 19 20 16 22 22 11 35 -12 14 -16
14 -34 1 -31 -21 -83 -19 -107 5 -12 12 -20 33 -20 55 0 22 8 43 20 55 24 24
77 27 106 6 13 -10 23 -11 31 -4 20 16 16 26 -17 43 -35 18 -97 19 -129 1z"/>
<path d="M4500 1557 c0 -112 12 -137 68 -137 20 0 42 4 49 8 22 14 33 63 33
143 0 72 -2 79 -20 79 -18 0 -20 -7 -20 -78 0 -85 -13 -117 -46 -110 -17 3
-19 13 -22 96 -2 84 -4 92 -22 92 -18 0 -20 -7 -20 -93z"/>
<path d="M4710 1535 l0 -115 50 0 c43 0 50 3 50 20 0 16 -7 20 -30 20 l-30 0
0 95 c0 88 -1 95 -20 95 -19 0 -20 -7 -20 -115z"/>
<path d="M4850 1557 c0 -112 12 -137 68 -137 20 0 42 4 49 8 22 14 33 63 33
143 0 72 -2 79 -20 79 -18 0 -20 -7 -20 -78 0 -85 -13 -117 -46 -110 -17 3
-19 13 -22 96 -2 84 -4 92 -22 92 -18 0 -20 -7 -20 -93z"/>
<path d="M5050 1535 c0 -108 1 -115 20 -115 17 0 20 7 20 52 l0 52 36 -52 c27
-38 43 -52 61 -52 27 0 27 0 -24 71 -18 26 -33 50 -33 55 0 5 16 29 36 54 35
44 35 45 13 48 -16 3 -32 -7 -55 -35 l-33 -38 -1 38 c0 30 -4 37 -20 37 -19 0
-20 -7 -20 -115z"/>
<path d="M4090 1340 c0 -13 7 -20 20 -20 13 0 20 7 20 20 0 13 -7 20 -20 20
-13 0 -20 -7 -20 -20z"/>
<path d="M4160 1340 c0 -15 5 -20 18 -18 9 2 17 10 17 18 0 8 -8 16 -17 18
-13 2 -18 -3 -18 -18z"/>
<path d="M4480 1340 c0 -13 7 -20 20 -20 13 0 20 7 20 20 0 13 -7 20 -20 20
-13 0 -20 -7 -20 -20z"/>
<path d="M4550 1340 c0 -15 5 -20 18 -18 9 2 17 10 17 18 0 8 -8 16 -17 18
-13 2 -18 -3 -18 -18z"/>
<path d="M1648 1278 c-27 -29 -63 -81 -80 -115 -28 -58 -30 -69 -26 -146 2
-45 8 -89 12 -96 7 -10 26 -12 75 -9 69 5 126 28 179 73 l31 26 -21 45 c-13
31 -18 57 -14 79 5 26 -2 46 -41 114 -26 44 -52 81 -57 81 -6 0 -32 -24 -58
-52z"/>
<path d="M3530 1185 c0 -108 1 -115 20 -115 17 0 20 7 20 52 l0 52 36 -52 c27
-38 43 -52 61 -52 27 0 27 0 -24 71 -18 26 -33 50 -33 55 0 5 16 29 36 54 35
44 35 45 13 48 -16 3 -32 -7 -55 -35 l-33 -38 -1 38 c0 30 -4 37 -20 37 -19 0
-20 -7 -20 -115z"/>
<path d="M3720 1207 c0 -112 12 -137 68 -137 20 0 42 4 49 8 22 14 33 63 33
143 0 72 -2 79 -20 79 -18 0 -20 -7 -20 -78 0 -85 -13 -117 -46 -110 -17 3
-19 13 -22 96 -2 84 -4 92 -22 92 -18 0 -20 -7 -20 -93z"/>
<path d="M3930 1185 l0 -115 50 0 c43 0 50 3 50 20 0 16 -7 20 -30 20 l-30 0
0 95 c0 88 -1 95 -20 95 -19 0 -20 -7 -20 -115z"/>
<path d="M4070 1207 c0 -112 12 -137 68 -137 20 0 42 4 49 8 22 14 33 63 33
143 0 72 -2 79 -20 79 -18 0 -20 -7 -20 -78 0 -85 -13 -117 -46 -110 -17 3
-19 13 -22 96 -2 84 -4 92 -22 92 -18 0 -20 -7 -20 -93z"/>
<path d="M4270 1185 l0 -115 50 0 c37 0 55 5 70 20 25 25 26 64 0 90 -11 11
-15 22 -10 25 6 4 10 19 10 35 0 37 -32 60 -82 60 l-38 0 0 -115z m75 50 c0
-11 -8 -21 -17 -23 -14 -3 -18 3 -18 23 0 20 4 26 18 23 9 -2 17 -12 17 -23z
m15 -80 c16 -19 -3 -45 -31 -45 -14 0 -19 7 -19 30 0 23 5 30 19 30 10 0 24
-7 31 -15z"/>
<path d="M4460 1207 c0 -112 12 -137 68 -137 20 0 42 4 49 8 22 14 33 63 33
143 0 72 -2 79 -20 79 -18 0 -20 -7 -20 -78 0 -85 -13 -117 -46 -110 -17 3
-19 13 -22 96 -2 84 -4 92 -22 92 -18 0 -20 -7 -20 -93z"/>
</g>
</svg>
